<svg width="30" height="30" fill="none" xmlns="http://www.w3.org/2000/svg"><path fill-rule="evenodd" clip-rule="evenodd" d="M18.983 18.09h.988l5.3 5.324a1.32 1.32 0 010 1.863 1.32 1.32 0 01-1.863 0l-5.313-5.313v-.987l-.337-.35a8.125 8.125 0 01-6.675 1.85c-3.475-.588-6.25-3.488-6.675-6.988a8.131 8.131 0 019.087-9.087c3.5.425 6.4 3.2 6.988 6.675a8.125 8.125 0 01-1.85 6.675l.35.337zM6.846 12.463a5.617 5.617 0 005.624 5.625 5.617 5.617 0 005.626-5.625A5.617 5.617 0 0012.47 6.84a5.617 5.617 0 00-5.624 5.625z" fill="#fff"/></svg>