<svg width="40" height="40" fill="none" xmlns="http://www.w3.org/2000/svg"><g clip-path="url(#clip0)"><path d="M39.546 10.136a7.437 7.437 0 00-3.783-9.133l-.265-.64a.587.587 0 00-.767-.318L29.524 2.2a1.827 1.827 0 00-.995.996 1.828 1.828 0 000 1.408l.015.039-20.47 8.593a1.206 1.206 0 00-.656.656c-.124.3-.124.63 0 .929l.254.615-4.122 1.707-.015-.036a1.205 1.205 0 00-.656-.657c-.3-.124-.63-.124-.929 0l-1.157.48c-.3.124-.533.357-.657.656-.124.3-.124.63 0 .929l1.917 4.628a1.205 1.205 0 001.121.75c.158 0 .315-.031.465-.093l1.157-.48c.3-.123.532-.357.657-.656.124-.3.124-.63 0-.929l-.015-.036 4.122-1.707.254.615c.124.299.358.532.657.656a1.209 1.209 0 00.931 0l1.642-.69a.59.59 0 00.182-.076l4.89-2.053c.068.081.141.159.219.23L6.972 39.129a.587.587 0 101.027.57l4.703-8.465h6.72v8.18a.587.587 0 001.175 0v-8.18h6.721l4.703 8.465a.587.587 0 101.027-.57L21.685 18.676a2.459 2.459 0 00.778-2.056l9.406-3.949.015.034a1.842 1.842 0 002.403.995l5.207-2.156a.587.587 0 00.318-.768l-.266-.64zM4.368 22.216c-.007.015-.018.02-.022.021l-1.157.48c-.003 0-.015.006-.03 0a.037.037 0 01-.02-.022L1.22 18.067a.037.037 0 010-.03c.006-.015.017-.02.021-.022l1.157-.479c.003 0 .008-.003.015-.003a.04.04 0 01.036.024l.959 2.315.719 1.735.24.579a.036.036 0 010 .03zm.62-1.6l-.494-1.194L4 18.23l4.122-1.707.988 2.386-4.122 1.707zM38.306 5.3c.388.938.54 1.943.454 2.937l-2.21-5.335A6.253 6.253 0 0138.306 5.3zM10.95 20.18c-.004 0-.015.006-.03 0-.015-.007-.02-.018-.021-.022l-1.198-2.893-.72-1.735-.478-1.157a.037.037 0 010-.03c.006-.015.017-.02.023-.023l1.189-.498 2.426 5.857-1.19.5zm10.352-3.311a1.293 1.293 0 01-2.583 0c0-.712.579-1.292 1.291-1.292s1.292.58 1.292 1.292zm-7.948 13.19l6.006-10.812.063.016V30.06h-6.07zm13.312 0h-6.069V19.263l.063-.016 6.006 10.812zm-4.598-14.547a2.465 2.465 0 00-4.468 1.876l-4.376 1.837-2.427-5.858L28.994 5.73l2.426 5.857-9.352 3.926zm11.77-2.896a.666.666 0 01-.87-.36l-3.355-8.1a.66.66 0 010-.51.66.66 0 01.36-.36l4.665-1.932 3.864 9.33-4.664 1.932z" fill="#fff"/></g><defs><clipPath id="clip0"><path fill="#fff" d="M0 0h40v40H0z"/></clipPath></defs></svg>